<svg width="33" height="66" viewBox="0 0 33 66" fill="none" xmlns="http://www.w3.org/2000/svg">
<g clip-path="url(#clip0_109_374)">
<path d="M32.9999 41.5525C32.9981 39.2466 32.4997 36.9674 31.5379 34.8663C30.3575 32.2686 28.5084 30.022 26.1749 28.3503C23.8414 26.6787 21.1051 25.6404 18.2388 25.3391C15.3724 25.0377 12.4761 25.4838 9.83872 26.6328C7.2013 27.7818 4.91486 29.5937 3.20737 31.8877C1.49988 34.1818 0.431008 36.8778 0.107269 39.7071C-0.216469 42.5365 0.21624 45.4002 1.3623 48.0128C2.50835 50.6254 4.3277 52.8957 6.63895 54.5972C8.9502 56.2987 11.6726 57.3721 14.5347 57.7103L11.0031 65.9814C11.0031 65.9814 23.3449 61.1143 29.3829 51.6992C31.723 48.8225 32.9991 45.2429 32.9999 41.5525Z" fill="#004EFF"/>
<path d="M16.4905 32.4842C25.5718 32.4842 32.9336 25.2124 32.9336 16.2421C32.9336 7.27184 25.5718 0 16.4905 0C7.40929 0 0.0474854 7.27184 0.0474854 16.2421C0.0474854 25.2124 7.40929 32.4842 16.4905 32.4842Z" fill="#00FFF5"/>
</g>
<defs>
<clipPath id="clip0_109_374">
<rect width="33" height="66" fill="white"/>
</clipPath>
</defs>
</svg>
